<?xml version="1.0" encoding="utf-8"?>
<!-- Generator: Adobe Illustrator 23.0.2, SVG Export Plug-In . SVG Version: 6.00 Build 0)  -->
<svg version="1.1" id="Layer_1" xmlns="http://www.w3.org/2000/svg" xmlns:xlink="http://www.w3.org/1999/xlink" x="0px" y="0px"
	 viewBox="0 0 118 132" enable-background="new 0 0 118 132" xml:space="preserve">
<path fill="#B9CD00" d="M55.5,4.7c-0.3,0.3-0.9,0.9-2.3,2.2c-1.7,1.6-3.5,3-5.6,4.2c-1.2,0.7-6.8,4-8.3,4.8
	c-0.8,0.4-1.8,1.1-2.7,1.6c-1.3,0.8-2.1,1.3-2.7,1.6c-0.2,0.1-1.2,0.7-3.6,2.3c-0.1,0.1-0.2,0.1-0.3,0.2C11.6,32,0.1,51.7,0.1,72.9
	c0,32.4,26.4,58.8,58.8,58.8c32.4,0,58.8-26.4,58.8-58.8c0-20.3-10.3-39-27.5-49.8c-0.1,0-0.1-0.1-0.2-0.1c-0.1-0.1-0.2-0.1-0.3-0.2
	c-0.1,0-0.1-0.1-0.2-0.1c-0.7-0.5-1.5-0.9-2.3-1.3c-0.1-0.1-0.2-0.1-0.3-0.2c-0.4-0.3-0.8-0.5-1.2-0.8c-0.3-0.2-0.7-0.4-1-0.6
	c-0.5-0.3-1-0.6-1.5-1c-1.1-0.8-2.2-1.5-3.3-2.1c-2.6-1.5-5.8-3.2-8.9-5.1c-1.9-1.2-3.6-2.5-5.3-3.7c-0.2-0.2-0.4-0.3-0.6-0.5
	C65.1,7.2,65,7.1,65,7.1c-0.4-0.4-0.8-0.8-1.2-1.2c-1-1-2.2-2.2-3.2-3.7C60.3,1.8,59.7,1,59.1,0c-0.6,1-1.2,1.8-1.7,2.4l0,0l0,0.1
	C57,2.9,56,4.1,55.5,4.7L55.5,4.7z"/>
<path fill="none" stroke="#FFFFFF" stroke-width="3.177" stroke-linecap="round" stroke-linejoin="round" stroke-miterlimit="10" d="
	M73.4,82.8l11.8-6c2.3-1.2,4.9-0.7,6,1.3c1.1,2,0.1,4.7-2.1,5.9L64.6,97.1l-1.3,0.3l-22.8,0.6c0,0-2.9,0.8-6.5,4.8"/>
<path fill="none" stroke="#FFFFFF" stroke-width="3.177" stroke-linecap="round" stroke-linejoin="round" stroke-miterlimit="10" d="
	M26,90.9l10.3-9.5c5-3.4,11-1.5,11-1.5c2.9,0.8,8.3,0.9,8.3,0.9h8.9c2.7,0,4.8,1.9,4.8,4.2c0,2.3-2.2,4.2-4.8,4.2H52.2"/>
<path fill="none" stroke="#FFFFFF" stroke-width="3.177" stroke-linecap="round" stroke-linejoin="round" stroke-miterlimit="10" d="
	M74.2,58.7c3.6-3.6,3.7-9.5,0.1-13.1c-3.6-3.6-9.4-3.5-13.1,0.1L59,48l-2.2-2.2c-3.6-3.6-9.5-3.7-13.1-0.1
	c-3.6,3.6-3.5,9.4,0.1,13.1L59,73.9L74.2,58.7z"/>
</svg>
