<?xml version="1.0" encoding="utf-8"?>
<!-- Generator: Adobe Illustrator 23.0.2, SVG Export Plug-In . SVG Version: 6.00 Build 0)  -->
<svg version="1.1" id="Layer_1" xmlns="http://www.w3.org/2000/svg" xmlns:xlink="http://www.w3.org/1999/xlink" x="0px" y="0px"
	 viewBox="0 0 132 119" enable-background="new 0 0 132 119" xml:space="preserve">
<path fill="#BA4814" d="M127.2,55.9c-0.3-0.3-0.9-0.9-2.2-2.3c-1.6-1.7-3-3.5-4.2-5.6c-0.7-1.2-4-6.8-4.8-8.3
	c-0.4-0.8-1.1-1.8-1.6-2.7c-0.8-1.3-1.3-2.1-1.6-2.7c-0.1-0.2-0.7-1.2-2.3-3.6c-0.1-0.1-0.1-0.2-0.2-0.3C99.9,12,80.3,0.5,59,0.5
	C26.6,0.5,0.2,26.9,0.2,59.3c0,32.4,26.4,58.8,58.8,58.8c20.3,0,39-10.3,49.8-27.5c0-0.1,0.1-0.1,0.1-0.2c0.1-0.1,0.1-0.2,0.2-0.3
	c0-0.1,0.1-0.1,0.1-0.2c0.5-0.7,0.9-1.5,1.3-2.3c0.1-0.1,0.1-0.2,0.2-0.3c0.3-0.4,0.5-0.8,0.8-1.2c0.2-0.3,0.4-0.7,0.6-1
	c0.3-0.5,0.6-1,1-1.5c0.8-1.1,1.5-2.2,2.1-3.3c1.5-2.6,3.2-5.8,5.1-8.9c1.2-1.9,2.5-3.6,3.7-5.3c0.2-0.2,0.3-0.4,0.5-0.6
	c0.1-0.1,0.1-0.1,0.2-0.2c0.4-0.4,0.8-0.8,1.2-1.2c1-1,2.2-2.2,3.7-3.2c0.4-0.2,1.1-0.8,2.1-1.4c-1-0.6-1.8-1.2-2.4-1.7l0,0l-0.1,0
	C129,57.4,127.8,56.4,127.2,55.9L127.2,55.9z"/>
<path fill="none" stroke="#FFFFFF" stroke-width="4" stroke-linecap="round" stroke-linejoin="round" stroke-miterlimit="10" d="
	M75.3,69.2l11.8-6c2.3-1.2,4.9-0.7,6,1.3c1.1,2,0.1,4.7-2.1,5.9L66.5,83.5l-1.3,0.3l-22.8,0.6c0,0-2.9,0.8-6.5,4.8"/>
<path fill="none" stroke="#FFFFFF" stroke-width="4" stroke-linecap="round" stroke-linejoin="round" stroke-miterlimit="10" d="
	M28,77.3l10.3-9.5c5-3.4,11-1.5,11-1.5c2.9,0.8,8.3,0.9,8.3,0.9h8.9c2.7,0,4.8,1.9,4.8,4.2c0,2.3-2.2,4.2-4.8,4.2H54.2"/>
<path fill="none" stroke="#FFFFFF" stroke-width="4" stroke-linecap="round" stroke-linejoin="round" stroke-miterlimit="10" d="
	M50.8,35.1c-0.5,0.2-0.9,0.4-1.3,0.8c-0.7,0.7-1,1.6-1,2.6c0,1,0.4,2,1.2,2.7"/>
<path fill="none" stroke="#FFFFFF" stroke-width="4" stroke-linecap="round" stroke-linejoin="round" stroke-miterlimit="10" d="
	M76.1,45.1c3.6-3.6,3.7-9.5,0.1-13.1c-3.6-3.6-9.4-3.5-13.1,0.1l-2.3,2.2l-2.2-2.2c-3.6-3.6-9.5-3.7-13.1-0.1
	c-3.6,3.6-3.5,9.4,0.1,13.1l15.2,15.2L76.1,45.1z"/>
</svg>
