<?xml version="1.0" encoding="utf-8"?>
<!-- Generator: Adobe Illustrator 23.0.2, SVG Export Plug-In . SVG Version: 6.00 Build 0)  -->
<svg version="1.1" id="Layer_1" xmlns="http://www.w3.org/2000/svg" xmlns:xlink="http://www.w3.org/1999/xlink" x="0px" y="0px"
	 viewBox="0 0 171 72" enable-background="new 0 0 171 72" xml:space="preserve">
<g>
	<defs>
		<rect id="SVGID_1_" y="0" width="171" height="72"/>
	</defs>
	<clipPath id="SVGID_2_">
		<use xlink:href="#SVGID_1_"  overflow="visible"/>
	</clipPath>
	<path clip-path="url(#SVGID_2_)" fill="#FFFFFF" d="M72.2,30.5c-0.9-0.9-2.8-2.2-5.4-2.2c-3.8,0-6.4,3-6.4,6.8
		c0,3.9,2.8,6.9,6.6,6.9c2.6,0,4.4-1.5,5.3-2.3l1.2,3.5c-1,0.9-3.3,2.5-6.7,2.5c-6.2,0-10.6-4.5-10.6-10.6c0-6.1,4.5-10.6,10.6-10.6
		c3.3,0,5.6,1.5,6.8,2.5L72.2,30.5z"/>
	<path clip-path="url(#SVGID_2_)" fill="#FFFFFF" d="M85.4,41.9c3.8,0,6.5-2.9,6.5-6.9s-2.8-6.9-6.5-6.9c-3.8,0-6.5,3-6.5,6.9
		C79,39.1,81.6,41.9,85.4,41.9 M85.4,24.4c6.3,0,10.8,4.5,10.8,10.6s-4.6,10.6-10.8,10.6c-6.2,0-10.7-4.5-10.7-10.6
		S79.3,24.4,85.4,24.4"/>
</g>
<rect x="98.7" y="17.1" fill="#FFFFFF" width="4.2" height="28.1"/>
<g>
	<defs>
		<rect id="SVGID_3_" y="0" width="171" height="72"/>
	</defs>
	<clipPath id="SVGID_4_">
		<use xlink:href="#SVGID_3_"  overflow="visible"/>
	</clipPath>
	<path clip-path="url(#SVGID_4_)" fill="#FFFFFF" d="M106.7,24.9h4.2v20.3h-4.2V24.9z M108.8,17.3c1.5,0,2.6,1.2,2.6,2.6
		s-1.2,2.6-2.6,2.6c-1.5,0-2.6-1.2-2.6-2.6S107.3,17.3,108.8,17.3"/>
	<path clip-path="url(#SVGID_4_)" fill="#FFFFFF" d="M124.8,42c3.5,0,6.1-2.7,6.1-6.8c0-4.1-2.5-7-6-7c-3.4,0-6.1,2.5-6.1,7
		C118.8,38.9,121.1,42,124.8,42 M114.7,17.1h4.2v9.3c1.2-0.8,2.7-2,6.6-2c5.8,0,9.6,4.4,9.6,10.7c0,6.2-4.1,10.6-9.9,10.6
		c-3.9,0-6-1.7-6.5-2.4v1.9h-4V17.1z"/>
	<path clip-path="url(#SVGID_4_)" fill="#FFFFFF" d="M147.6,28.7c-4.4,0-5.7,3.4-5.7,7.8v8.7h-4.2V24.9h4.2v2.6
		c1-1.9,2.9-3.1,5.8-3.1V28.7z"/>
	<path clip-path="url(#SVGID_4_)" fill="#FFFFFF" d="M149.8,24.9h4.2v20.3h-4.2V24.9z M151.9,17.3c1.5,0,2.6,1.2,2.6,2.6
		s-1.2,2.6-2.6,2.6c-1.5,0-2.6-1.2-2.6-2.6S150.4,17.3,151.9,17.3"/>
	<path clip-path="url(#SVGID_4_)" fill="#FFFFFF" d="M159,39.6c0.9,1.4,2.3,2.6,4.9,2.6c1.8,0,3.1-0.9,3.1-2.5
		c0-3.9-9.9-2.5-9.9-9.5c0-3.6,3-5.8,7-5.8c3.8,0,5.8,2.2,6.6,3.8l-2.9,1.9c-0.6-0.9-1.7-2.3-3.9-2.3c-1.6,0-2.7,0.8-2.7,2.2
		c0,3.9,9.9,2.3,9.9,9.4c0,3.8-3.2,6.2-7.3,6.2c-4.1,0-6.3-2.2-7.3-4L159,39.6z"/>
</g>
<rect x="128.7" y="51.8" fill="#FFFFFF" width="42.3" height="2.9"/>
<g>
	<defs>
		<rect id="SVGID_5_" y="0" width="171" height="72"/>
	</defs>
	<clipPath id="SVGID_6_">
		<use xlink:href="#SVGID_5_"  overflow="visible"/>
	</clipPath>
	<path clip-path="url(#SVGID_6_)" fill="#FFFFFF" d="M23.1,29.3c0,0-9.1-6.7-10.2-7.5c-0.5-0.4-3.7-2.9-7.3-5.8
		c-7.9,9.3-7.5,23.2,1.3,31.9c2.8,2.8,6.1,4.7,9.6,5.8C17.3,48,19.1,39.5,23.1,29.3"/>
	<path clip-path="url(#SVGID_6_)" fill="#FFFFFF" d="M25.3,23.4c0.4,0.4,0.7,0,1-0.7c0.6-1.6,0.4-3.1,3.3-2.3
		c2.9,0.8,4.7,1.7,6.9,1.9c1.3,0.1,5.7,0.8,9.4,1.3c-1.1-3.3-3-6.5-5.6-9.2C32.8,7.1,26.4,8.2,23.6,0c-2.8,7.9-8.8,7.2-15.9,13.8
		C15.7,18.1,24.9,23.1,25.3,23.4"/>
	<path clip-path="url(#SVGID_6_)" fill="#FFFFFF" d="M33.7,23.1c-0.6,0.7-0.1,1.3-0.3,2.1c-0.2,0.8-0.5,1.6-1.5,2.7
		c-1.5,1.7-4.8,3.5-6.8,7.3c-0.9,1.7-4.4,7.8-7.5,18.9c1.9,0.5,3.9,0.8,5.9,0.8c6,0,12.1-2.3,16.7-6.9c6.4-6.4,8.3-15.5,5.9-23.5
		C41.4,23.7,34,22.7,33.7,23.1"/>
	<path clip-path="url(#SVGID_6_)" fill="#FFFFFF" d="M108.6,68.1c-0.1,0.4-0.2,0.8-0.3,1.2c-0.1,0.4-0.2,0.7-0.3,1
		c-0.1,0.3-0.3,0.6-0.4,0.9s-0.4,0.5-0.6,0.8l-0.8-0.1c0.2-0.3,0.4-0.6,0.6-0.8c0.2-0.3,0.3-0.5,0.4-0.7c0.1-0.2,0.2-0.5,0.3-0.7
		c0.1-0.3,0.2-0.5,0.2-0.8l1.6-6.8c0.1-0.5,0.3-1,0.5-1.3c0.2-0.3,0.4-0.6,0.7-0.8c0.3-0.2,0.5-0.3,0.8-0.4c0.3-0.1,0.6-0.1,0.9-0.1
		c0.3,0,0.6,0,0.8,0.1c0.2,0.1,0.4,0.1,0.6,0.2l-0.4,0.7c-0.2-0.1-0.4-0.1-0.5-0.1c-0.2,0-0.4-0.1-0.6-0.1c-0.2,0-0.4,0-0.6,0.1
		c-0.2,0.1-0.4,0.2-0.5,0.3c-0.2,0.1-0.3,0.3-0.4,0.6c-0.1,0.3-0.2,0.6-0.3,0.9l-0.2,0.7h2.3l-0.2,0.7h-2.3L108.6,68.1z"/>
	<path clip-path="url(#SVGID_6_)" fill="#FFFFFF" d="M117.1,63.4c-0.2,0-0.3-0.1-0.4-0.1c-0.1,0-0.3,0-0.4,0c-0.5,0-1,0.1-1.5,0.3
		c-0.4,0.2-0.8,0.5-1.1,0.8c-0.3,0.3-0.5,0.7-0.7,1.2c-0.2,0.4-0.2,0.9-0.2,1.3c0,0.4,0,0.7,0.1,0.9c0.1,0.2,0.2,0.4,0.3,0.6
		c0.1,0.1,0.3,0.3,0.4,0.3c0.2,0.1,0.3,0.1,0.5,0.1c0.4,0,0.7-0.1,1-0.3c0.3-0.2,0.6-0.4,0.9-0.7c0-0.2,0-0.5,0.1-0.8
		c0.1-0.3,0.1-0.6,0.2-0.8L117.1,63.4z M116.3,69.5c-0.1-0.1-0.1-0.2-0.1-0.4c0-0.1-0.1-0.3-0.1-0.4c-0.3,0.3-0.6,0.5-1,0.7
		c-0.3,0.1-0.7,0.2-1.1,0.2c-0.3,0-0.6,0-0.8-0.1c-0.3-0.1-0.5-0.2-0.7-0.4c-0.2-0.2-0.3-0.5-0.5-0.8c-0.1-0.3-0.2-0.7-0.2-1.1
		c0-0.7,0.1-1.3,0.3-1.9c0.2-0.6,0.5-1.1,1-1.5c0.4-0.4,0.9-0.7,1.5-0.9c0.6-0.2,1.2-0.3,1.8-0.3c0.5,0,1.1,0.1,1.6,0.3l-1,4.1
		c-0.1,0.2-0.1,0.4-0.1,0.6c0,0.2-0.1,0.4-0.1,0.6c0,0.2,0,0.5,0.1,0.7c0,0.2,0.1,0.4,0.2,0.7L116.3,69.5z"/>
	<path clip-path="url(#SVGID_6_)" fill="#FFFFFF" d="M120.3,60.7c0-0.2,0.1-0.4,0.2-0.5c0.1-0.1,0.3-0.2,0.4-0.2
		c0.2,0,0.3,0.1,0.4,0.2s0.1,0.3,0.1,0.4c0,0.2-0.1,0.4-0.2,0.5c-0.1,0.1-0.3,0.2-0.4,0.2c-0.2,0-0.3-0.1-0.4-0.2
		C120.3,61,120.3,60.8,120.3,60.7 M120,62.6h0.9l-1.6,6.8h-0.9L120,62.6z"/>
	<path clip-path="url(#SVGID_6_)" fill="#FFFFFF" d="M122.6,62.9c0.3-0.1,0.7-0.2,1.1-0.3c0.4-0.1,0.8-0.1,1.2-0.1
		c0.2,0,0.4,0,0.6,0c0.2,0,0.4,0.1,0.5,0.1l-0.2,0.8c-0.3-0.1-0.7-0.2-1.1-0.2c-0.2,0-0.5,0-0.7,0.1c-0.2,0-0.5,0.1-0.7,0.2l-1.4,6
		h-0.9L122.6,62.9z"/>
	<path clip-path="url(#SVGID_6_)" fill="#FFFFFF" d="M129.6,63.3c-0.4,0-0.7,0.1-1,0.2c-0.3,0.1-0.6,0.3-0.8,0.6
		c-0.2,0.2-0.5,0.5-0.6,0.9c-0.2,0.3-0.3,0.7-0.4,1c0.7,0,1.4-0.1,1.9-0.1c0.5-0.1,0.9-0.2,1.2-0.3c0.3-0.1,0.5-0.3,0.7-0.5
		c0.1-0.2,0.2-0.4,0.2-0.7c0-0.3-0.1-0.6-0.3-0.8C130.2,63.4,129.9,63.3,129.6,63.3 M131.6,64.2c0,0.5-0.1,0.9-0.4,1.2
		c-0.2,0.3-0.6,0.6-1,0.7c-0.4,0.2-1,0.3-1.6,0.4c-0.6,0.1-1.3,0.1-2,0.2V67c0,0.3,0,0.5,0.1,0.7c0.1,0.2,0.2,0.4,0.3,0.6
		c0.1,0.2,0.3,0.3,0.6,0.4c0.3,0.1,0.6,0.1,1,0.1c0.3,0,0.6,0,0.9-0.1c0.3-0.1,0.6-0.2,0.9-0.4l0.1,0.8c-0.3,0.2-0.6,0.3-1,0.4
		c-0.4,0.1-0.7,0.1-1.1,0.1c-0.5,0-0.9-0.1-1.2-0.2c-0.3-0.1-0.6-0.3-0.8-0.5c-0.2-0.2-0.4-0.5-0.4-0.8c-0.1-0.3-0.1-0.6-0.1-1
		c0-0.6,0.1-1.1,0.3-1.7c0.2-0.6,0.4-1.1,0.8-1.5c0.3-0.4,0.7-0.8,1.2-1.1c0.5-0.3,1-0.4,1.7-0.4c0.6,0,1.1,0.2,1.4,0.5
		C131.4,63.3,131.6,63.7,131.6,64.2"/>
	<path clip-path="url(#SVGID_6_)" fill="#FFFFFF" d="M134.3,68.4c0.3,0.2,0.6,0.3,0.9,0.4c0.2,0.1,0.5,0.1,0.8,0.1
		c0.2,0,0.4,0,0.6-0.1c0.2,0,0.4-0.1,0.5-0.2c0.1-0.1,0.3-0.2,0.4-0.4c0.1-0.2,0.1-0.3,0.1-0.6c0-0.2-0.1-0.4-0.2-0.6
		c-0.1-0.2-0.3-0.3-0.5-0.4c-0.2-0.1-0.4-0.2-0.6-0.3c-0.2-0.1-0.4-0.2-0.6-0.4c-0.2-0.1-0.3-0.3-0.5-0.5c-0.1-0.2-0.2-0.5-0.2-0.8
		c0-0.4,0.1-0.7,0.2-1c0.1-0.3,0.3-0.5,0.6-0.7c0.2-0.2,0.5-0.3,0.8-0.4c0.3-0.1,0.6-0.1,0.9-0.1c0.3,0,0.6,0,0.8,0.1
		c0.3,0,0.5,0.1,0.8,0.2l-0.3,0.8c-0.2-0.1-0.4-0.1-0.6-0.2c-0.2,0-0.5-0.1-0.7-0.1c-0.2,0-0.4,0-0.6,0.1c-0.2,0-0.4,0.1-0.5,0.2
		c-0.1,0.1-0.3,0.2-0.4,0.4c-0.1,0.2-0.1,0.3-0.1,0.6c0,0.2,0.1,0.4,0.2,0.6c0.1,0.1,0.3,0.3,0.5,0.4c0.2,0.1,0.4,0.2,0.6,0.3
		c0.2,0.1,0.4,0.2,0.6,0.4c0.2,0.1,0.3,0.3,0.5,0.5c0.1,0.2,0.2,0.4,0.2,0.8c0,0.4-0.1,0.7-0.2,1c-0.1,0.3-0.3,0.5-0.6,0.7
		c-0.2,0.2-0.5,0.3-0.8,0.4c-0.3,0.1-0.6,0.1-0.9,0.1c-0.3,0-0.7,0-1-0.1c-0.3-0.1-0.7-0.2-0.9-0.3L134.3,68.4z"/>
	<path clip-path="url(#SVGID_6_)" fill="#FFFFFF" d="M144.7,63.4c-0.2,0-0.3-0.1-0.4-0.1c-0.1,0-0.3,0-0.4,0c-0.5,0-1,0.1-1.5,0.3
		c-0.4,0.2-0.8,0.5-1.1,0.8c-0.3,0.3-0.5,0.7-0.7,1.2c-0.2,0.4-0.2,0.9-0.2,1.3c0,0.4,0,0.7,0.1,0.9c0.1,0.2,0.2,0.4,0.3,0.6
		c0.1,0.1,0.3,0.3,0.4,0.3c0.2,0.1,0.3,0.1,0.5,0.1c0.4,0,0.7-0.1,1-0.3c0.3-0.2,0.6-0.4,0.9-0.7c0-0.2,0-0.5,0.1-0.8
		c0.1-0.3,0.1-0.6,0.2-0.8L144.7,63.4z M143.9,69.5c-0.1-0.1-0.1-0.2-0.1-0.4c0-0.1-0.1-0.3-0.1-0.4c-0.3,0.3-0.6,0.5-1,0.7
		c-0.3,0.1-0.7,0.2-1.1,0.2c-0.3,0-0.6,0-0.8-0.1c-0.3-0.1-0.5-0.2-0.7-0.4c-0.2-0.2-0.3-0.5-0.5-0.8c-0.1-0.3-0.2-0.7-0.2-1.1
		c0-0.7,0.1-1.3,0.3-1.9c0.2-0.6,0.5-1.1,1-1.5s0.9-0.7,1.5-0.9c0.6-0.2,1.2-0.3,1.8-0.3c0.5,0,1.1,0.1,1.6,0.3l-1,4.1
		c-0.1,0.2-0.1,0.4-0.1,0.6c0,0.2-0.1,0.4-0.1,0.6c0,0.2,0,0.5,0.1,0.7c0,0.2,0.1,0.4,0.2,0.7L143.9,69.5z"/>
	<path clip-path="url(#SVGID_6_)" fill="#FFFFFF" d="M149.7,68.7c0.3,0.1,0.6,0.1,0.8,0.1c0.5,0,1-0.1,1.5-0.3
		c0.4-0.2,0.8-0.5,1.1-0.8c0.3-0.3,0.5-0.7,0.7-1.2c0.1-0.4,0.2-0.9,0.2-1.3c0-0.7-0.1-1.1-0.4-1.4c-0.3-0.3-0.7-0.5-1.3-0.5
		c-0.2,0-0.4,0-0.6,0.1c-0.2,0-0.4,0.1-0.6,0.1L149.7,68.7z M150.2,62.9c0.4-0.1,0.7-0.2,1.1-0.3c0.4-0.1,0.7-0.1,1.1-0.1
		c1.6,0,2.4,0.8,2.4,2.5c0,0.6-0.1,1.2-0.3,1.7c-0.2,0.6-0.5,1-0.9,1.5c-0.4,0.4-0.8,0.8-1.4,1c-0.5,0.3-1.2,0.4-1.9,0.4
		c-0.3,0-0.7,0-0.9-0.1l-0.6,2.4H148L150.2,62.9z"/>
	<path clip-path="url(#SVGID_6_)" fill="#FFFFFF" d="M160.5,63.4c-0.2,0-0.3-0.1-0.4-0.1c-0.1,0-0.3,0-0.4,0c-0.5,0-1,0.1-1.5,0.3
		c-0.4,0.2-0.8,0.5-1.1,0.8c-0.3,0.3-0.5,0.7-0.7,1.2c-0.2,0.4-0.2,0.9-0.2,1.3c0,0.4,0,0.7,0.1,0.9c0.1,0.2,0.2,0.4,0.3,0.6
		c0.1,0.1,0.3,0.3,0.4,0.3c0.2,0.1,0.3,0.1,0.5,0.1c0.4,0,0.7-0.1,1-0.3c0.3-0.2,0.6-0.4,0.9-0.7c0-0.2,0-0.5,0.1-0.8
		c0.1-0.3,0.1-0.6,0.2-0.8L160.5,63.4z M159.7,69.5c-0.1-0.1-0.1-0.2-0.1-0.4c0-0.1-0.1-0.3-0.1-0.4c-0.3,0.3-0.6,0.5-1,0.7
		c-0.3,0.1-0.7,0.2-1.1,0.2c-0.3,0-0.6,0-0.8-0.1c-0.3-0.1-0.5-0.2-0.7-0.4c-0.2-0.2-0.3-0.5-0.5-0.8c-0.1-0.3-0.2-0.7-0.2-1.1
		c0-0.7,0.1-1.3,0.3-1.9c0.2-0.6,0.5-1.1,1-1.5s0.9-0.7,1.5-0.9c0.6-0.2,1.2-0.3,1.8-0.3c0.5,0,1.1,0.1,1.6,0.3l-1,4.1
		c-0.1,0.2-0.1,0.4-0.1,0.6c0,0.2-0.1,0.4-0.1,0.6c0,0.2,0,0.5,0.1,0.7c0,0.2,0.1,0.4,0.2,0.7L159.7,69.5z"/>
	<path clip-path="url(#SVGID_6_)" fill="#FFFFFF" d="M163.3,62.9c0.3-0.1,0.7-0.2,1.1-0.3c0.4-0.1,0.8-0.1,1.2-0.1
		c0.2,0,0.4,0,0.6,0c0.2,0,0.4,0.1,0.5,0.1l-0.2,0.8c-0.3-0.1-0.7-0.2-1.1-0.2c-0.2,0-0.5,0-0.7,0.1c-0.2,0-0.5,0.1-0.7,0.2l-1.4,6
		h-0.9L163.3,62.9z"/>
	<path clip-path="url(#SVGID_6_)" fill="#FFFFFF" d="M168.2,60.6l0.9-0.2l-0.5,2.2h2.4l-0.2,0.7h-2.4l-0.8,3.3
		c0,0.2-0.1,0.3-0.1,0.5c0,0.2,0,0.4,0,0.5c0,0.4,0.1,0.7,0.3,0.8c0.2,0.2,0.4,0.2,0.7,0.2c0.3,0,0.5,0,0.7-0.1
		c0.2-0.1,0.4-0.1,0.7-0.3l0.1,0.8c-0.2,0.1-0.5,0.2-0.8,0.3c-0.3,0.1-0.6,0.1-0.9,0.1c-0.2,0-0.4,0-0.6-0.1s-0.4-0.1-0.5-0.3
		c-0.2-0.1-0.3-0.3-0.4-0.5c-0.1-0.2-0.1-0.5-0.1-0.8c0-0.4,0.1-0.8,0.2-1.3L168.2,60.6z"/>
</g>
</svg>
