<?xml version="1.0" encoding="utf-8"?>
<!-- Generator: Adobe Illustrator 23.0.2, SVG Export Plug-In . SVG Version: 6.00 Build 0)  -->
<svg version="1.1" id="Layer_1" xmlns="http://www.w3.org/2000/svg" xmlns:xlink="http://www.w3.org/1999/xlink" x="0px" y="0px"
	 viewBox="0 0 89.1 103.1" enable-background="new 0 0 89.1 103.1" xml:space="preserve">
<g>
	<defs>
		<rect id="SVGID_1_" width="89.1" height="103.1"/>
	</defs>
	<clipPath id="SVGID_2_">
		<use xlink:href="#SVGID_1_"  overflow="visible"/>
	</clipPath>
	<path clip-path="url(#SVGID_2_)" fill="#BDC802" d="M42.4,11.5c-0.2,0.2-0.6,0.6-1.4,1.4c-1.1,1-2.2,1.9-3.5,2.6
		c-0.8,0.5-4.3,2.5-5.2,3c-0.5,0.3-1.1,0.7-1.7,1c-0.8,0.5-1.3,0.8-1.7,1c-0.1,0.1-0.8,0.5-2.3,1.4c-0.1,0-0.1,0.1-0.2,0.1
		C14.7,28.7,7.5,41.1,7.5,54.4c0,20.4,16.6,37,37,37c20.4,0,37-16.6,37-37c0-12.8-6.5-24.5-17.3-31.4c0,0-0.1-0.1-0.1-0.1
		c-0.1,0-0.1-0.1-0.2-0.1c0,0-0.1-0.1-0.1-0.1c-0.5-0.3-0.9-0.6-1.4-0.8c-0.1,0-0.1-0.1-0.2-0.1c-0.3-0.2-0.5-0.3-0.8-0.5
		c-0.2-0.1-0.4-0.3-0.6-0.4c-0.3-0.2-0.6-0.4-0.9-0.6c-0.7-0.5-1.4-0.9-2.1-1.3c-1.7-0.9-3.6-2-5.6-3.2c-1.2-0.7-2.3-1.6-3.3-2.3
		c-0.1-0.1-0.3-0.2-0.4-0.3c0,0-0.1-0.1-0.1-0.1c-0.2-0.3-0.5-0.5-0.8-0.8c-0.6-0.7-1.4-1.4-2-2.3c-0.2-0.2-0.5-0.7-0.9-1.3
		c-0.4,0.6-0.8,1.2-1,1.5l0,0l0,0C43.3,10.4,42.7,11.1,42.4,11.5L42.4,11.5z"/>
	<path clip-path="url(#SVGID_2_)" fill="#FFFFFF" d="M44.5,96.2c-23.2,0-42.1-18.9-42.1-42.1C2.5,39,10.7,25,23.9,17.5
		c2.1-1.3,2.4-1.5,2.6-1.6c0.2-0.1,0.7-0.4,1.2-0.7c0.6-0.4,1.3-0.8,1.8-1.1c0.8-0.5,4.1-2.4,4.8-2.8c0.8-0.5,1.6-1,2.2-1.7
		c0.1-0.1,0.7-0.7,0.9-0.9c0.2-0.3,0.6-0.8,0.8-1c0,0,0-0.1,0.1-0.1c0.3-0.4,1.5-2.3,1.9-2.9c0.2-0.3,0.4-0.9,0.6-1.3
		C41.5,1.9,42.3,0,44.6,0c2.4,0,3.2,1.9,3.7,3.2c0.2,0.5,0.5,1.2,0.7,1.5c0.7,1.1,1.8,2.7,2.1,3.2c0.3,0.4,0.7,0.8,1.2,1.3
		c0.2,0.2,0.5,0.5,0.7,0.7c0.8,0.6,1.6,1.2,2.4,1.7c1.8,1.1,3.6,2.1,5.1,2.9c0.9,0.5,1.6,1,2.4,1.5c0.3,0.2,0.5,0.4,0.8,0.5
		c0.2,0.1,0.4,0.3,0.7,0.4c0.2,0.1,0.4,0.2,0.5,0.4c0.5,0.3,1,0.6,1.5,0.8c0.2,0.1,0.4,0.3,0.6,0.4c12.3,7.8,19.6,21.1,19.6,35.6
		C86.6,77.3,67.7,96.2,44.5,96.2 M42.5,12.5c-0.2,0.2-0.6,0.6-1.4,1.4c-1,1-2.2,1.8-3.5,2.6c-0.8,0.4-4.2,2.5-5.1,3
		c-0.5,0.3-1.1,0.6-1.6,1c-0.8,0.5-1.3,0.8-1.7,1c-0.1,0.1-0.7,0.4-2.2,1.4c-0.1,0-0.1,0.1-0.2,0.1C15.5,29.2,8.5,41.3,8.5,54.3
		c0,19.9,16.2,36.1,36.1,36.1s36.1-16.2,36.1-36.1c0-12.5-6.3-23.9-16.9-30.5c0,0-0.1-0.1-0.1-0.1c-0.1,0-0.1-0.1-0.2-0.1
		c0,0-0.1,0-0.1-0.1c-0.5-0.3-0.9-0.5-1.4-0.8c-0.1,0-0.1-0.1-0.2-0.1c-0.2-0.2-0.5-0.3-0.7-0.5c-0.2-0.1-0.4-0.3-0.6-0.4
		c-0.3-0.2-0.6-0.4-0.9-0.6c-0.7-0.5-1.4-0.9-2-1.3c-1.6-0.9-3.5-2-5.4-3.2c-1.2-0.7-2.2-1.5-3.2-2.3c-0.1-0.1-0.3-0.2-0.4-0.3
		c0,0-0.1-0.1-0.1-0.1c-0.2-0.3-0.5-0.5-0.7-0.8c-0.6-0.6-1.3-1.4-2-2.3c-0.2-0.2-0.5-0.7-0.9-1.3c-0.4,0.6-0.8,1.1-1,1.4l0,0l0,0
		C43.4,11.3,42.8,12.1,42.5,12.5L42.5,12.5z"/>
	<path clip-path="url(#SVGID_2_)" fill="#FFFFFF" d="M33.7,97.4c-0.4,1.8-0.8,3.6-1.2,5.4c0,0.1-0.1,0.2-0.2,0.2
		c0.1-1.8,0.2-3.5,0.3-5.3c0.2-2.2,0.9-7.5,0.9-7.7c0.1-1.6,0.5-3.2,0.8-4.8c0.2-1.2,0.4-2.4,0.7-3.6c0.2-0.8,0.4-1.7,0.5-2.5
		c0.3-1.1,3.2-12,3.2-12.2c0.3-0.9,0.6-1.8,0.8-2.7c0.2-0.7,1.9-5.9,2-6.1c0.8-1.8,1.4-3.7,2.1-5.5c0.1-0.2,0.2-0.5-0.1-0.6
		c-1.4-1.1-2.9-2.1-4.3-3.2c-1.8-1.4-3.7-2.7-5.5-4.1c-0.9-0.7-8.7-6.6-9.1-6.9c-1-0.7-3.2-2.6-3.4-2.7c-1.1-1-9.8-7.8-12.1-9.7
		c-3-2.4-6-4.8-8.9-7.4c0,0-0.1-0.1-0.1-0.2c0.1-0.2,0.7,0.1,0.9,0.3c4.8,2.3,9.4,4.8,14.1,7.2c1.4,0.7,5.7,3,6.4,3.4
		c3,1.6,20.5,11.1,21.1,11.4c1.5,0.8,3,1.7,4.5,2.5c0.9,0.5,1.2,0.4,1.6-0.6c0.4-1,0.7-2.2,0.8-2.5c0.1-0.3,0.6-1.1,0.6-1.1
		c0.7-0.8,1.6-0.8,2.6-0.7c2.5,0.4,4.9,1.4,7.3,2.1c1,0.3,4,1.2,4.5,1.3c1.9,0.3,17.3,2.3,18.4,2.5c1.8,0.3,3.6,0.6,5.4,1
		c0.3,0.1,0.9,0.1,0.8,0.5c-0.1,0.5-0.6,0.3-0.9,0.2c-2-0.3-3.9-0.7-5.9-1c-0.6-0.1-1.3-0.2-1.9-0.3c-1.2-0.2-19-2.3-19.4-2
		c-0.5,0.1-0.6,0.6-0.6,0.9c-0.1,0.9-0.2,1.8-0.3,2.6c-0.5,2.5-3.6,5.4-4,5.7c-1.7,1.5-3.6,2.8-5.1,4.6c-0.7,0.8-2,2.6-2,2.6
		c-0.2,0-2.8,4.5-3.3,5.6c-0.7,1.4-1.4,2.8-2.1,4.2c-0.6,1.2-1.1,2.4-1.6,3.7c-0.4,0.9-1.9,5.1-2.1,5.5c-0.6,1.4-1.1,2.8-1.6,4.3
		c-0.6,2-1.4,4-2,6.1C35.8,89.1,34.2,95.3,33.7,97.4"/>
</g>
</svg>
