<?xml version="1.0" encoding="utf-8"?>
<!-- Generator: Adobe Illustrator 23.0.2, SVG Export Plug-In . SVG Version: 6.00 Build 0)  -->
<svg version="1.1" id="Layer_1" xmlns="http://www.w3.org/2000/svg" xmlns:xlink="http://www.w3.org/1999/xlink" x="0px" y="0px"
	 viewBox="0 0 118 130" enable-background="new 0 0 118 130" xml:space="preserve">
<path fill="none" stroke="#FFFFFF" stroke-width="4.984" stroke-linecap="round" stroke-linejoin="round" stroke-miterlimit="10" d="
	M69.2,14.1c0,6-4.8,10.8-10.8,10.8c-6,0-10.8-4.8-10.8-10.8c0-6,4.8-10.8,10.8-10.8C64.4,3.3,69.2,8.1,69.2,14.1z"/>
<path fill="none" stroke="#FFFFFF" stroke-width="4.984" stroke-linecap="round" stroke-linejoin="round" stroke-miterlimit="10" d="
	M70.3,126.7l1-42.4c4-1.4,8.7-4.8,8.3-8.9l-3.3-32.2c-0.4-4.2-4.2-7.6-8.4-7.6H48.9c-4.2,0-8,3.4-8.4,7.6l-3.3,32.2
	c-0.4,4.2,4.3,7.5,8.3,8.9l1,42.4"/>
<path fill="none" stroke="#FFFFFF" stroke-width="4.984" stroke-linecap="round" stroke-linejoin="round" stroke-miterlimit="10" d="
	M95.1,16.5c5.3,0,9.6,4.3,9.6,9.6c0,5.3-4.3,9.6-9.6,9.6c-5.3,0-9.6-4.3-9.6-9.6C85.5,20.8,89.8,16.5,95.1,16.5z"/>
<path fill="none" stroke="#FFFFFF" stroke-width="4.984" stroke-linecap="round" stroke-linejoin="round" stroke-miterlimit="10" d="
	M105.6,126.7l0.9-37.6c3.5-1.3,7.8-4.2,7.4-7.9L111,52.5c-0.4-3.7-3.7-6.8-7.5-6.8H87.5"/>
<path fill="none" stroke="#FFFFFF" stroke-width="4.984" stroke-linecap="round" stroke-linejoin="round" stroke-miterlimit="10" d="
	M21.7,16.5c-5.3,0-9.6,4.3-9.6,9.6c0,5.3,4.3,9.6,9.6,9.6c5.3,0,9.6-4.3,9.6-9.6C31.3,20.8,27,16.5,21.7,16.5z"/>
<path fill="none" stroke="#FFFFFF" stroke-width="4.984" stroke-linecap="round" stroke-linejoin="round" stroke-miterlimit="10" d="
	M11.2,126.7l-0.9-37.6c-3.5-1.3-7.8-4.2-7.4-7.9l2.9-28.6c0.4-3.7,3.7-6.8,7.5-6.8h16.1"/>
</svg>
