<?xml version="1.0" encoding="utf-8"?>
<!-- Generator: Adobe Illustrator 23.0.2, SVG Export Plug-In . SVG Version: 6.00 Build 0)  -->
<svg version="1.1" id="Layer_1" xmlns="http://www.w3.org/2000/svg" xmlns:xlink="http://www.w3.org/1999/xlink" x="0px" y="0px"
	 viewBox="0 0 132 120" enable-background="new 0 0 132 120" xml:space="preserve">
<path fill="none" stroke="#FFFFFF" stroke-width="4.984" stroke-linecap="round" stroke-linejoin="round" stroke-miterlimit="10" d="
	M93.7,79.4l22.6-11.5c4.4-2.3,9.5-1.4,11.6,2.5c2.1,3.9,0.3,9.1-4.1,11.4l-46.8,25.1l-2.5,0.6l-43.7,1.2c0,0-5.6,1.6-12.4,9.2"/>
<path fill="none" stroke="#FFFFFF" stroke-width="4.984" stroke-linecap="round" stroke-linejoin="round" stroke-miterlimit="10" d="
	M2.9,95l19.8-18.2c9.7-6.5,21.1-2.9,21.1-2.9c5.6,1.5,15.9,1.8,15.9,1.8h17.1c5.1,0,9.3,3.6,9.3,8.1c0,4.5-4.2,8.1-9.3,8.1H53.2"/>
<path fill="none" stroke="#FFFFFF" stroke-width="4.984" stroke-linecap="round" stroke-linejoin="round" stroke-miterlimit="10" d="
	M46.6,14.1c-0.9,0.3-1.8,0.8-2.5,1.5c-1.3,1.3-2,3-2,4.9c0,2,0.8,3.8,2.2,5.3"/>
<path fill="none" stroke="#FFFFFF" stroke-width="4.984" stroke-linecap="round" stroke-linejoin="round" stroke-miterlimit="10" d="
	M95.3,33.3c7-7,7.1-18.3,0.2-25.1c-6.8-6.8-18.1-6.7-25.1,0.2l-4.3,4.3l-4.3-4.3c-7-7-18.3-7.1-25.1-0.2C29.9,15,30,26.3,37,33.3
	l29.1,29.1L95.3,33.3z"/>
</svg>
