<?xml version="1.0" encoding="utf-8"?>
<!-- Generator: Adobe Illustrator 23.0.2, SVG Export Plug-In . SVG Version: 6.00 Build 0)  -->
<svg version="1.1" id="Layer_1" xmlns="http://www.w3.org/2000/svg" xmlns:xlink="http://www.w3.org/1999/xlink" x="0px" y="0px"
	 viewBox="0 0 160 134" enable-background="new 0 0 160 134" xml:space="preserve">
<path fill="none" stroke="#FFFFFF" stroke-width="4.984" stroke-linecap="round" stroke-linejoin="round" stroke-miterlimit="10" d="
	M113.3,56.8v-7.5c0-8,5.5-12.7,13-12.7l9.2,10.1l8.5-10.1c7.5,0,13.6,4.7,13.6,12.7v7.5"/>
<path fill="none" stroke="#FFFFFF" stroke-width="4.984" stroke-linecap="round" stroke-linejoin="round" stroke-miterlimit="10" d="
	M146.5,16.2c0,6.1-4.9,11.1-11,11.1c-6,0-11-5-11-11.1v-2.6c0-6.1,4.9-11.1,11-11.1c6,0,11,5,11,11.1V16.2z"/>
<path fill="none" stroke="#FFFFFF" stroke-width="4.984" stroke-linecap="round" stroke-linejoin="round" stroke-miterlimit="10" d="
	M113.3,131.6v-7.5c0-8,5.5-12.7,13-12.7l9.2,10.1l8.5-10.1c7.5,0,13.6,4.7,13.6,12.7v7.5"/>
<path fill="none" stroke="#FFFFFF" stroke-width="4.984" stroke-linecap="round" stroke-linejoin="round" stroke-miterlimit="10" d="
	M146.5,91c0,6.1-4.9,11.1-11,11.1c-6,0-11-5-11-11.1v-2.6c0-6.1,4.9-11.1,11-11.1c6,0,11,5,11,11.1V91z"/>
<polyline fill="none" stroke="#FFFFFF" stroke-width="4.984" stroke-linecap="round" stroke-linejoin="round" stroke-miterlimit="10" points="
	102.3,16.5 88.4,16.5 88.4,117.6 102.3,117.6 "/>
<line fill="none" stroke="#FFFFFF" stroke-width="4.984" stroke-linecap="round" stroke-linejoin="round" stroke-miterlimit="10" x1="71.6" y1="67" x2="88.4" y2="67"/>
<path fill="none" stroke="#FFFFFF" stroke-width="4.984" stroke-linecap="round" stroke-linejoin="round" stroke-miterlimit="10" d="
	M2.1,106.9V87.2c0-11.5,8.3-15.7,19-15.7l13.1,14.4l12.2-14.4c10.7,0,19.9,4.2,19.9,15.7v19.7"/>
<path fill="none" stroke="#FFFFFF" stroke-width="4.984" stroke-linecap="round" stroke-linejoin="round" stroke-miterlimit="10" d="
	M48.2,46.7c0,7.8-6.3,14.2-14,14.2c-7.7,0-14-6.4-14-14.2v-5.3c0-7.8,6.3-14.2,14-14.2c7.7,0,14,6.4,14,14.2V46.7z"/>
<line fill="none" stroke="#FFFFFF" stroke-width="4.984" stroke-linecap="round" stroke-linejoin="round" stroke-miterlimit="10" x1="16.8" y1="95.9" x2="16.8" y2="106.7"/>
<line fill="none" stroke="#FFFFFF" stroke-width="4.984" stroke-linecap="round" stroke-linejoin="round" stroke-miterlimit="10" x1="51.6" y1="95.9" x2="51.6" y2="106.7"/>
</svg>
