<?xml version="1.0" encoding="utf-8"?>
<!-- Generator: Adobe Illustrator 23.0.2, SVG Export Plug-In . SVG Version: 6.00 Build 0)  -->
<svg version="1.1" id="Layer_1" xmlns="http://www.w3.org/2000/svg" xmlns:xlink="http://www.w3.org/1999/xlink" x="0px" y="0px"
	 viewBox="0 0 118 144" enable-background="new 0 0 118 144" xml:space="preserve">
<path fill="none" stroke="#FFFFFF" stroke-width="4.984" stroke-linecap="round" stroke-linejoin="round" stroke-miterlimit="10" d="
	M35.9,80.7v-9.5c0-8.3,6-11.3,13.7-11.3l9.5,10.4l8.8-10.4c7.7,0,14.4,3.1,14.4,11.3v9.5"/>
<path fill="none" stroke="#FFFFFF" stroke-width="4.984" stroke-linecap="round" stroke-linejoin="round" stroke-miterlimit="10" d="
	M69.8,39.7c0,6-4.8,10.9-10.7,10.9c-5.9,0-10.7-4.9-10.7-10.9v-4c0-6,4.8-10.9,10.7-10.9c5.9,0,10.7,4.9,10.7,10.9V39.7z"/>
<path fill="none" stroke="#FFFFFF" stroke-width="4.984" stroke-linecap="round" stroke-linejoin="round" stroke-miterlimit="10" d="
	M102.4,74.8V49.7c0-4.2,2.7-7.6,6.5-7.6c3.8,0,6.8,3.4,6.9,7.6v48.9l-22.4,29.2c0,0-2.4,2.8-1.7,13.2"/>
<path fill="none" stroke="#FFFFFF" stroke-width="4.984" stroke-linecap="round" stroke-linejoin="round" stroke-miterlimit="10" d="
	M64.8,141.1l0-22.7c0-8.8,10.3-14.8,10.3-14.8c4.7-3.1,10-8.5,10-8.5l8.8-9.5c3.6-3.9,8.8-5,11.6-2.5c2.8,2.5,2.1,7.8-1.5,11.8
	l-12.3,13.4"/>
<path fill="none" stroke="#FFFFFF" stroke-width="4.984" stroke-linecap="round" stroke-linejoin="round" stroke-miterlimit="10" d="
	M15.7,74.8l0-25.2c0-4.2-2.7-7.6-6.5-7.6c-3.8,0-6.8,3.4-6.9,7.6l0,48.9l22.4,29.2c0,0,2.4,2.8,1.7,13.2"/>
<path fill="none" stroke="#FFFFFF" stroke-width="4.984" stroke-linecap="round" stroke-linejoin="round" stroke-miterlimit="10" d="
	M53.3,141.1l0-22.7c0-8.8-10.3-14.8-10.3-14.8c-4.7-3.1-9.9-8.5-9.9-8.5l-8.8-9.5c-3.6-3.9-8.8-5-11.6-2.5
	c-2.8,2.5-2.1,7.8,1.5,11.8l12.3,13.4"/>
<line fill="none" stroke="#FFFFFF" stroke-width="4.984" stroke-linecap="round" stroke-linejoin="round" stroke-miterlimit="10" x1="59.1" y1="12.5" x2="59.1" y2="3"/>
<line fill="none" stroke="#FFFFFF" stroke-width="4.984" stroke-linecap="round" stroke-linejoin="round" stroke-miterlimit="10" x1="34.2" y1="21.2" x2="28.3" y2="13.8"/>
<line fill="none" stroke="#FFFFFF" stroke-width="4.984" stroke-linecap="round" stroke-linejoin="round" stroke-miterlimit="10" x1="89.9" y1="13.8" x2="83.9" y2="21.2"/>
</svg>
