<?xml version="1.0" encoding="utf-8"?>
<!-- Generator: Adobe Illustrator 23.0.2, SVG Export Plug-In . SVG Version: 6.00 Build 0)  -->
<svg version="1.1" id="Layer_1" xmlns="http://www.w3.org/2000/svg" xmlns:xlink="http://www.w3.org/1999/xlink" x="0px" y="0px"
	 viewBox="0 0 132 119" enable-background="new 0 0 132 119" xml:space="preserve">
<path fill="#B9CD00" d="M127.2,55.9c-0.3-0.3-0.9-0.9-2.2-2.3c-1.6-1.7-3-3.5-4.2-5.6c-0.7-1.2-4-6.8-4.8-8.3
	c-0.4-0.8-1.1-1.8-1.6-2.7c-0.8-1.3-1.3-2.1-1.6-2.7c-0.1-0.2-0.7-1.2-2.3-3.6c-0.1-0.1-0.1-0.2-0.2-0.3C99.9,12,80.3,0.5,59,0.5
	C26.6,0.5,0.2,26.9,0.2,59.3c0,32.4,26.4,58.8,58.8,58.8c20.3,0,39-10.3,49.8-27.5c0-0.1,0.1-0.1,0.1-0.2c0.1-0.1,0.1-0.2,0.2-0.3
	c0-0.1,0.1-0.1,0.1-0.2c0.5-0.7,0.9-1.5,1.3-2.3c0.1-0.1,0.1-0.2,0.2-0.3c0.3-0.4,0.5-0.8,0.8-1.2c0.2-0.3,0.4-0.7,0.6-1
	c0.3-0.5,0.6-1,1-1.5c0.8-1.1,1.5-2.2,2.1-3.3c1.5-2.6,3.2-5.8,5.1-8.9c1.2-1.9,2.5-3.6,3.7-5.3c0.2-0.2,0.3-0.4,0.5-0.6
	c0.1-0.1,0.1-0.1,0.2-0.2c0.4-0.4,0.8-0.8,1.2-1.2c1-1,2.2-2.2,3.7-3.2c0.4-0.2,1.1-0.8,2.1-1.4c-1-0.6-1.8-1.2-2.4-1.7l0,0l-0.1,0
	C129,57.4,127.8,56.4,127.2,55.9L127.2,55.9z"/>
<path fill="none" stroke="#FFFFFF" stroke-width="4" stroke-linecap="round" stroke-linejoin="round" stroke-miterlimit="10" d="
	M58.4,22.9c-20.3,0-36.8,16.5-36.8,36.8c0,20.3,16.5,36.8,36.8,36.8c20.3,0,36.8-16.5,36.8-36.8C95.2,39.4,78.7,22.9,58.4,22.9z
	 M73.4,61.2L48.6,75.5c-1.1,0.7-2.6-0.2-2.6-1.5V45.5c0-1.3,1.4-2.1,2.6-1.5l24.8,14.3C74.5,58.9,74.5,60.6,73.4,61.2z"/>
</svg>
